<svg width="37" height="27" viewBox="0 0 37 27" fill="none" xmlns="http://www.w3.org/2000/svg">
<g clip-path="url(#clip0_702_3118)">
<path fill-rule="evenodd" clip-rule="evenodd" d="M5.43305 23.4518C10.091 23.4518 10.9688 19.3274 10.9688 16.0252C11.522 16.0252 15.8942 16.0252 17.8884 16.0252C28.7361 16.0252 28.7388 0.569824 18.2344 0.569824C15.3773 0.569824 13.537 2.3141 13.0443 2.92173C7.18338 2.92173 6.471 6.00565 6.471 11.9937C6.471 13.1489 6.471 16.9042 6.471 17.4826C6.471 18.8906 5.90913 19.804 4.39476 19.804C3.10182 19.804 2.48943 18.6511 1.97288 17.0332C1.7037 17.1788 -0.186405 18.2083 -0.448662 18.3771C0.123249 19.9934 0.735638 23.4518 5.43305 23.4518ZM12.0185 9.64148C13.793 9.64148 13.9439 12.3294 11.8929 12.3294C10.164 12.3294 10.209 9.64148 12.0185 9.64148ZM18.2348 17.6962C16.7349 17.6962 12.3527 17.3692 12.3527 17.3692V25.6558L16.5045 25.7155L17.5425 19.7211L30.6898 19.4723L31.0361 26.0445L35.8799 26.1045C35.8799 26.1045 36.5715 13.2319 36.5715 10.6494C36.5715 5.85938 34.4434 3.14827 29.6519 2.92173C28.4513 2.86502 26.8805 2.63948 25.8461 2.58575C30.3553 8.11113 26.7674 17.6962 18.2348 17.6962ZM26.5384 21.0561L26.884 25.9251L29.6519 25.9851L29.3059 21.0561H26.5384ZM17.8884 25.7758L20.6563 25.8355L21.3479 21.0561H18.926L17.8884 25.7758Z" fill="#FF862F"/>
</g>
<defs>
<clipPath id="clip0_702_3118">
<rect width="37" height="27" fill="white" transform="matrix(-1 0 0 1 37 0)"/>
</clipPath>
</defs>
</svg>
