<svg width="140" height="17" viewBox="0 0 140 17" fill="none" xmlns="http://www.w3.org/2000/svg">
<path d="M7.79043 1.07762C8.77752 1.07762 9.80258 1.18758 10.8656 1.4075C11.9286 1.61276 12.9233 1.93532 13.8497 2.37516L12.574 6.02587C12.1792 5.89392 11.754 5.78396 11.2984 5.69599C10.858 5.59336 10.4176 5.51272 9.97722 5.45408C9.55201 5.39543 9.1344 5.35878 8.72437 5.34411C8.32954 5.31479 7.97266 5.30013 7.65376 5.30013C7.28929 5.30013 7.03113 5.35878 6.87927 5.47607C6.7426 5.5787 6.67426 5.73264 6.67426 5.9379C6.67426 6.14317 6.90964 6.3191 7.38041 6.46572C7.85118 6.59767 8.45103 6.74429 9.17995 6.90556C9.51405 6.97887 9.87851 7.06684 10.2733 7.16947C10.6834 7.2721 11.0934 7.40405 11.5034 7.56533C11.9134 7.72661 12.3159 7.93187 12.7107 8.18111C13.1055 8.43036 13.4548 8.73825 13.7585 9.10479C14.0774 9.47132 14.328 9.90384 14.5103 10.4023C14.6925 10.9008 14.7836 11.4799 14.7836 12.1397C14.7836 12.8141 14.6469 13.4446 14.3736 14.031C14.1154 14.6175 13.675 15.1307 13.0524 15.5705C12.4298 16.0103 11.6097 16.3622 10.5923 16.6261C9.57479 16.8754 8.31435 17 6.81093 17C6.4161 17 5.94533 16.978 5.39863 16.934C4.86712 16.89 4.29005 16.8167 3.66743 16.7141C3.05998 16.6115 2.43736 16.4795 1.79954 16.3182C1.16173 16.157 0.561883 15.9517 0 15.7025L1.18451 11.8978C1.89825 12.1177 2.58163 12.2937 3.23462 12.4256C3.90281 12.5429 4.51025 12.6309 5.05695 12.6895C5.61883 12.7482 6.10478 12.7848 6.51481 12.7995C6.92483 12.8141 7.23614 12.8215 7.44875 12.8215C7.9347 12.8215 8.2612 12.7555 8.42825 12.6235C8.61048 12.4916 8.70159 12.3303 8.70159 12.1397C8.70159 11.7732 8.2612 11.4946 7.38041 11.304C6.46925 11.0841 5.60364 10.8642 4.7836 10.6442C3.96355 10.4243 3.24222 10.1384 2.61959 9.78655C2.01215 9.43467 1.5262 8.98016 1.16173 8.42303C0.797266 7.86589 0.615034 7.13282 0.615034 6.2238C0.615034 5.52005 0.728929 4.86028 0.95672 4.2445C1.1997 3.61406 1.60213 3.06425 2.16401 2.59508C2.72589 2.12592 3.46241 1.75938 4.37358 1.49547C5.29992 1.2169 6.43888 1.07762 7.79043 1.07762Z" fill="#A65CF0"/>
<path d="M16.9038 16.6921C16.919 14.8594 16.919 13.0341 16.9038 11.216C16.8886 9.39802 16.8886 7.57266 16.9038 5.73997H22.4619C22.4467 7.57266 22.4467 9.39802 22.4619 11.216C22.4771 13.0341 22.4771 14.8594 22.4619 16.6921H16.9038ZM22.6897 2.50712C22.6897 3.22553 22.4543 3.81932 21.9836 4.28849C21.5128 4.75766 20.7383 4.99224 19.6601 4.99224C19.1286 4.99224 18.673 4.93359 18.2934 4.8163C17.9137 4.68435 17.6024 4.50841 17.3594 4.28849C17.1316 4.06856 16.9646 3.80466 16.8583 3.49677C16.752 3.18887 16.6988 2.85899 16.6988 2.50712C16.6988 1.75938 16.9266 1.15826 17.3822 0.703752C17.8378 0.234584 18.5971 0 19.6601 0C20.7535 0 21.528 0.234584 21.9836 0.703752C22.4543 1.15826 22.6897 1.75938 22.6897 2.50712Z" fill="#A65CF0"/>
<path d="M31.0512 2.35317V5.73997H34.1036V9.03881H31.0512V11.5239C31.0512 11.8611 31.074 12.1324 31.1196 12.3376C31.1803 12.5429 31.2638 12.6969 31.3701 12.7995C31.4916 12.9021 31.6435 12.9681 31.8257 12.9974C32.0079 13.0267 32.2281 13.0414 32.4863 13.0414C32.5926 13.0414 32.8052 13.0267 33.1241 12.9974C33.443 12.9681 33.7923 12.9241 34.1719 12.8655L34.7642 16.3182C34.4605 16.4355 34.134 16.5382 33.7847 16.6261C33.4506 16.6994 33.1089 16.7654 32.7596 16.8241C32.4256 16.8827 32.0915 16.9194 31.7574 16.934C31.4385 16.9633 31.1575 16.978 30.9145 16.978C29.6693 16.978 28.6898 16.8387 27.976 16.5602C27.2623 16.2816 26.7232 15.937 26.3587 15.5265C26.0095 15.1013 25.7893 14.6468 25.6981 14.163C25.607 13.6792 25.5615 13.232 25.5615 12.8215V9.03881H24.0581V6.11384L25.9715 5.56404C26.1689 5.08021 26.3663 4.58905 26.5637 4.09056C26.7612 3.59207 26.951 3.10091 27.1332 2.61708L31.0512 2.35317Z" fill="#A65CF0"/>
<path d="M36.3217 16.6921V1.45149H43.5427C45.122 1.45149 46.4204 1.65675 47.4379 2.06727C48.4705 2.46313 49.283 3.00561 49.8752 3.6947C50.4675 4.38379 50.8775 5.19017 51.1053 6.11384C51.3483 7.03752 51.4698 8.01251 51.4698 9.03881C51.4698 10.0358 51.3331 10.9961 51.0598 11.9198C50.7864 12.8435 50.3384 13.6572 49.7158 14.3609C49.0932 15.0647 48.2731 15.6292 47.2557 16.0543C46.2534 16.4795 45.0157 16.6921 43.5427 16.6921H36.3217ZM42.062 5.14618V12.9534H43.1327C43.6186 12.9534 44.0134 12.8508 44.3172 12.6455C44.6361 12.4256 44.879 12.1397 45.0461 11.7878C45.2283 11.4213 45.3498 11.0035 45.4106 10.5343C45.4865 10.0651 45.5245 9.57396 45.5245 9.0608C45.5245 8.53299 45.4865 8.0345 45.4106 7.56533C45.3346 7.0815 45.198 6.66365 45.0005 6.31177C44.8183 5.9599 44.5601 5.68133 44.226 5.47607C43.892 5.25615 43.4667 5.14618 42.9504 5.14618H42.062Z" fill="#A65CF0"/>
<path d="M66.7237 11.194C66.7237 12.0444 66.5947 12.8215 66.3365 13.5252C66.0783 14.229 65.6683 14.8374 65.1064 15.3506C64.5597 15.8491 63.8536 16.2376 62.988 16.5162C62.1224 16.7947 61.0745 16.934 59.8445 16.934C58.5992 16.934 57.5438 16.7947 56.6782 16.5162C55.8126 16.2376 55.1064 15.8491 54.5597 15.3506C54.013 14.8374 53.6106 14.229 53.3524 13.5252C53.1095 12.8215 52.988 12.0444 52.988 11.194C52.988 10.3583 53.1095 9.58862 53.3524 8.88486C53.6106 8.18111 54.013 7.57999 54.5597 7.0815C55.1216 6.58301 55.8354 6.19448 56.701 5.91591C57.5666 5.63734 58.6144 5.49806 59.8445 5.49806C61.0745 5.49806 62.1224 5.63734 62.988 5.91591C63.8688 6.19448 64.5825 6.58301 65.1292 7.0815C65.6759 7.57999 66.0783 8.18111 66.3365 8.88486C66.5947 9.58862 66.7237 10.3583 66.7237 11.194ZM61.029 11.194C61.029 10.4756 60.9454 9.95515 60.7784 9.6326C60.6114 9.29539 60.3 9.12678 59.8445 9.12678C59.3889 9.12678 59.0776 9.31738 58.9105 9.69858C58.7435 10.0798 58.66 10.5783 58.66 11.194C58.66 11.9711 58.7435 12.5282 58.9105 12.8655C59.0776 13.2027 59.3889 13.3713 59.8445 13.3713C60.3 13.3713 60.6114 13.2027 60.7784 12.8655C60.9454 12.5282 61.029 11.9711 61.029 11.194Z" fill="#A65CF0"/>
<path d="M82.4746 12.9094L82.8618 9.76455L83.5907 5.76197H88.921C88.511 7.60931 88.0782 9.43467 87.6226 11.238C87.1822 13.0414 86.7494 14.8594 86.3242 16.6921H79.5816L78.7843 12.6675L78.3971 9.65459H78.2149L77.8732 12.6455L77.1215 16.6921H70.4244C69.984 14.8594 69.5285 13.0487 69.0577 11.26C68.5869 9.47132 68.1389 7.63864 67.7137 5.76197H73.1579L73.8868 9.85252L74.2741 12.9974H74.4108L74.8891 9.83053L75.7547 5.76197H80.9939L81.8367 9.78655L82.3151 12.9094H82.4746Z" fill="#A65CF0"/>
<path d="M95.7866 6.90556C96.47 6.40707 97.1761 6.04053 97.905 5.80595C98.6492 5.57137 99.2946 5.45408 99.8413 5.45408C101.238 5.45408 102.233 5.80595 102.825 6.5097C103.418 7.19879 103.714 8.2251 103.714 9.58862V16.6921H98.1328V10.6223C98.1328 10.1971 98.0493 9.90384 97.8823 9.74256C97.7304 9.58129 97.4798 9.50065 97.1306 9.50065C96.9939 9.50065 96.8192 9.52997 96.6066 9.58862C96.394 9.64726 96.1814 9.74989 95.9688 9.89651V16.6921H90.3652C90.3804 14.8594 90.3804 13.0341 90.3652 11.216C90.35 9.38336 90.35 7.55067 90.3652 5.71798H95.5132L95.6271 6.83959L95.7866 6.90556Z" fill="#A65CF0"/>
<path d="M119.48 6.48771C119.48 7.1768 119.351 7.82924 119.093 8.44502C118.85 9.04614 118.478 9.57395 117.977 10.0285C117.476 10.483 116.861 10.8422 116.132 11.1061C115.403 11.37 114.56 11.5019 113.603 11.5019H111.644V16.6921H105.904V1.45149H113.239C114.423 1.45149 115.418 1.58344 116.223 1.84735C117.028 2.11126 117.666 2.47046 118.136 2.92497C118.622 3.37947 118.964 3.91462 119.161 4.5304C119.374 5.14618 119.48 5.79862 119.48 6.48771ZM111.644 5.14618V7.9392H112.351C112.776 7.9392 113.102 7.82191 113.33 7.58732C113.573 7.35274 113.694 7.02286 113.694 6.59767C113.694 6.04054 113.558 5.65934 113.284 5.45408C113.011 5.24881 112.654 5.14618 112.214 5.14618H111.644Z" fill="#A65CF0"/>
<path d="M120.826 16.6921C120.841 14.0237 120.833 11.37 120.803 8.73092C120.788 6.09185 120.795 3.43812 120.826 0.769729H126.361C126.376 3.43812 126.384 6.09185 126.384 8.73092C126.384 11.37 126.384 14.0237 126.384 16.6921H120.826Z" fill="#A65CF0"/>
<path d="M134.282 5.43208C135.103 5.43208 135.945 5.51272 136.811 5.674C137.677 5.82061 138.497 6.06253 139.271 6.39974L138.314 9.43467C137.631 9.21475 136.97 9.0608 136.333 8.97283C135.695 8.88486 135.125 8.84088 134.624 8.84088C134.396 8.84088 134.237 8.8702 134.146 8.92885C134.055 8.9875 134.009 9.0828 134.009 9.21475C134.009 9.28806 134.138 9.36136 134.396 9.43467C134.655 9.49332 134.966 9.55929 135.33 9.6326C135.786 9.70591 136.287 9.81587 136.834 9.96248C137.38 10.0944 137.889 10.2997 138.36 10.5783C138.831 10.8568 139.218 11.2307 139.522 11.6999C139.841 12.1544 140 12.7408 140 13.4593C140 13.9431 139.894 14.3976 139.681 14.8228C139.468 15.248 139.104 15.6218 138.588 15.9444C138.087 16.2523 137.418 16.5015 136.583 16.6921C135.748 16.868 134.715 16.956 133.485 16.956C133.166 16.956 132.787 16.9414 132.346 16.912C131.921 16.8827 131.458 16.8314 130.957 16.7581C130.456 16.6848 129.939 16.5895 129.408 16.4722C128.891 16.3402 128.398 16.179 127.927 15.9884L128.838 12.8215C130.099 13.1734 131.086 13.3859 131.8 13.4593C132.513 13.5179 133.037 13.5472 133.371 13.5472C133.629 13.5472 133.842 13.5326 134.009 13.5032C134.176 13.4593 134.26 13.3786 134.26 13.2613C134.26 13.1587 134.214 13.0781 134.123 13.0194C134.032 12.9608 133.918 12.9168 133.781 12.8875C133.645 12.8435 133.493 12.8068 133.326 12.7775C133.174 12.7482 133.03 12.7188 132.893 12.6895C132.331 12.5576 131.777 12.4183 131.23 12.2717C130.699 12.1251 130.22 11.9271 129.795 11.6779C129.385 11.4286 129.051 11.1134 128.793 10.7322C128.535 10.3364 128.405 9.8232 128.405 9.19276C128.405 8.6796 128.504 8.19578 128.702 7.74127C128.899 7.28676 129.226 6.8909 129.681 6.55369C130.137 6.20181 130.737 5.93057 131.481 5.73997C132.24 5.53471 133.174 5.43208 134.282 5.43208Z" fill="#A65CF0"/>
</svg>
